<svg id="IOW" xmlns="http://www.w3.org/2000/svg" viewBox="0 0 1031.002 77.303">
  <title>Independent Out Reachers Type</title>
  <g>
    <path d="M74.6,63.457a36.486,36.486,0,0,0,.24,4.74,6.01,6.01,0,0,0,.93,2.7,3.234,3.234,0,0,0,1.98,1.26,17.628,17.628,0,0,0,3.39.36V74.8H61.7v-2.28a15.935,15.935,0,0,0,3.39-.39A3.632,3.632,0,0,0,67.1,70.9a5.245,5.245,0,0,0,.96-2.55,32.749,32.749,0,0,0,.24-4.47V39.517a34.139,34.139,0,0,0-.21-4.17,6.183,6.183,0,0,0-.84-2.61,3.35,3.35,0,0,0-1.83-1.35,13.015,13.015,0,0,0-3.12-.51V28.6h18.24v2.28a10.336,10.336,0,0,0-3.09.48,3.441,3.441,0,0,0-1.8,1.41,6.563,6.563,0,0,0-.84,2.73,38.178,38.178,0,0,0-.21,4.44Z" transform="translate(-58.998 -21.697)"/>
    <path d="M96.857,65.377q0,2.461.12,3.87a4.526,4.526,0,0,0,.63,2.16,2.417,2.417,0,0,0,1.5.99,17.12,17.12,0,0,0,2.73.36V74.8H86.118v-2.04a16.9,16.9,0,0,0,2.67-.36,2.6,2.6,0,0,0,1.53-.96,4.157,4.157,0,0,0,.69-2.04,33.717,33.717,0,0,0,.15-3.6v-7.98a57.745,57.745,0,0,0-.36-8.7,5.392,5.392,0,0,0-.45-1.29,1.806,1.806,0,0,0-.81-.78,4.073,4.073,0,0,0-1.38-.36A21,21,0,0,0,86,46.6v-1.92l9.6-2.28.72,5.94h.24a16.419,16.419,0,0,1,5.34-4.38,14.45,14.45,0,0,1,6.66-1.56,13.619,13.619,0,0,1,5.04.9,7.943,7.943,0,0,1,3.48,2.46,8.7,8.7,0,0,1,1.44,3.57,33.773,33.773,0,0,1,.42,6.03v10.02a38.63,38.63,0,0,0,.15,3.87,5.025,5.025,0,0,0,.63,2.16,2.3,2.3,0,0,0,1.47.99,16.669,16.669,0,0,0,2.61.36V74.8h-15.54v-2.04a12.162,12.162,0,0,0,2.67-.33,2.6,2.6,0,0,0,1.5-.99,4.437,4.437,0,0,0,.66-2.07,33.873,33.873,0,0,0,.15-3.57v-7.92a38.732,38.732,0,0,0-.36-5.76,11.233,11.233,0,0,0-1.17-3.78,4.825,4.825,0,0,0-2.13-2.07,7.329,7.329,0,0,0-3.18-.63,9.144,9.144,0,0,0-4.95,1.41,9.669,9.669,0,0,0-3.51,3.87q-.3.6-.51,1.14a6.328,6.328,0,0,0-.33,1.26,16.226,16.226,0,0,0-.18,1.65q-.061.931-.06,2.37Z" transform="translate(-58.998 -21.697)"/>
    <path d="M154.277,69.757h-.24a13.692,13.692,0,0,1-4.59,4.35,12.057,12.057,0,0,1-5.73,1.29,15.668,15.668,0,0,1-6.27-1.23,14.685,14.685,0,0,1-4.92-3.42,15.714,15.714,0,0,1-3.24-5.25,18.5,18.5,0,0,1-1.17-6.66,18.089,18.089,0,0,1,1.17-6.57,15.79,15.79,0,0,1,3.24-5.22,14.639,14.639,0,0,1,4.95-3.42,15.727,15.727,0,0,1,6.24-1.23,12.97,12.97,0,0,1,5.13.96,13.985,13.985,0,0,1,4.35,3.06V40.3q0-3.42-.09-5.7a21.773,21.773,0,0,0-.27-3.12,2.539,2.539,0,0,0-1.68-1.86,13.456,13.456,0,0,0-4.5-.54v-1.8l12.3-2.28v34.62q0,4.14.06,6.81a18.349,18.349,0,0,0,.36,3.81,4.864,4.864,0,0,0,.45,1.2,1.881,1.881,0,0,0,.78.75,4.219,4.219,0,0,0,1.38.39,16.881,16.881,0,0,0,2.25.12v2.04l-9.96.66Zm-1.2-13.26a25.507,25.507,0,0,0-.33-4.74,6.535,6.535,0,0,0-1.29-2.82,8.775,8.775,0,0,0-3.51-2.73,10.513,10.513,0,0,0-4.23-.93,7.293,7.293,0,0,0-6.57,3.57q-2.25,3.571-2.25,9.69a26.732,26.732,0,0,0,.57,5.76,14.461,14.461,0,0,0,1.68,4.41,8.1,8.1,0,0,0,2.76,2.82,7.259,7.259,0,0,0,3.81.99,10.335,10.335,0,0,0,2.19-.24,9.5,9.5,0,0,0,2.16-.75,11.277,11.277,0,0,0,1.95-1.2,6.613,6.613,0,0,0,1.5-1.59,9.072,9.072,0,0,0,1.2-3.18,28.176,28.176,0,0,0,.36-5.1Z" transform="translate(-58.998 -21.697)"/>
    <path d="M197.056,69.217A15.784,15.784,0,0,1,184.4,75.4a16.915,16.915,0,0,1-6.42-1.17,14.328,14.328,0,0,1-4.95-3.3,14.844,14.844,0,0,1-3.21-5.1,18.191,18.191,0,0,1-1.14-6.57,18.715,18.715,0,0,1,1.2-6.78,15.328,15.328,0,0,1,3.39-5.34,15.731,15.731,0,0,1,5.22-3.48,17.1,17.1,0,0,1,6.63-1.26q5.819,0,9,3.15t3.18,9.03c0,.561-.111.9-.33,1.02a3.954,3.954,0,0,1-1.53.18H175.7a7.536,7.536,0,0,0-.18,1.17q-.06.691-.06,1.53a20.02,20.02,0,0,0,.75,5.67,12.83,12.83,0,0,0,2.16,4.35,9.964,9.964,0,0,0,3.36,2.79,9.47,9.47,0,0,0,4.35.99,10.081,10.081,0,0,0,4.68-1.11,16.21,16.21,0,0,0,4.44-3.63Zm-9.9-16.2q1.2,0,1.92-.06a3.078,3.078,0,0,0,1.08-.24.917.917,0,0,0,.48-.51,2.612,2.612,0,0,0,.12-.87,5.746,5.746,0,0,0-1.77-4.41,6.806,6.806,0,0,0-4.83-1.65q-6.48,0-8.04,7.74Z" transform="translate(-58.998 -21.697)"/>
    <path d="M212.716,47.317h.24a16.435,16.435,0,0,1,4.14-3.6,9.908,9.908,0,0,1,5.16-1.32,15.671,15.671,0,0,1,6.27,1.23,14.849,14.849,0,0,1,4.95,3.45,15.87,15.87,0,0,1,3.27,5.25,18.253,18.253,0,0,1,1.17,6.63,18.02,18.02,0,0,1-1.2,6.69,15.583,15.583,0,0,1-3.3,5.19,14.8,14.8,0,0,1-4.98,3.36,16.064,16.064,0,0,1-6.24,1.2,13.006,13.006,0,0,1-5.01-.93,12.32,12.32,0,0,1-4.23-3.03V80.2a24.376,24.376,0,0,0,.24,3.84,4.217,4.217,0,0,0,.96,2.22,3.88,3.88,0,0,0,2.07,1.08,19.541,19.541,0,0,0,3.57.36v2.1h-18.48V87.7a13.215,13.215,0,0,0,2.91-.36,3.259,3.259,0,0,0,1.74-1.08,4.643,4.643,0,0,0,.87-2.13,20.866,20.866,0,0,0,.24-3.51V58.177q0-3.479-.09-5.7a15.285,15.285,0,0,0-.33-3.06,2.572,2.572,0,0,0-1.38-1.95,10.91,10.91,0,0,0-4.08-.51v-2.04l11.52-2.28Zm1.8,1.74a8.982,8.982,0,0,0-1.17,2.85,19.194,19.194,0,0,0-.39,4.29v4.68q0,1.62.09,2.79a15.351,15.351,0,0,0,.27,2.01,7.254,7.254,0,0,0,.48,1.5,5.888,5.888,0,0,0,.78,1.26,9.884,9.884,0,0,0,3.3,2.97,8.255,8.255,0,0,0,4.02,1.05,7.918,7.918,0,0,0,6.69-3.48q2.55-3.479,2.55-9.78a21.727,21.727,0,0,0-.69-5.67,14.214,14.214,0,0,0-1.95-4.38,9.339,9.339,0,0,0-3.03-2.85,7.733,7.733,0,0,0-3.93-1.02,8.249,8.249,0,0,0-3.99.99A8.414,8.414,0,0,0,214.516,49.057Z" transform="translate(-58.998 -21.697)"/>
    <path d="M272.175,69.217a15.784,15.784,0,0,1-12.66,6.18,16.915,16.915,0,0,1-6.42-1.17,14.328,14.328,0,0,1-4.95-3.3,14.844,14.844,0,0,1-3.21-5.1,18.191,18.191,0,0,1-1.14-6.57,18.715,18.715,0,0,1,1.2-6.78,15.328,15.328,0,0,1,3.39-5.34,15.731,15.731,0,0,1,5.22-3.48,17.1,17.1,0,0,1,6.63-1.26q5.819,0,9,3.15t3.18,9.03c0,.561-.111.9-.33,1.02a3.954,3.954,0,0,1-1.53.18h-19.74a7.536,7.536,0,0,0-.18,1.17q-.06.691-.06,1.53a20.02,20.02,0,0,0,.75,5.67,12.83,12.83,0,0,0,2.16,4.35,9.964,9.964,0,0,0,3.36,2.79,9.47,9.47,0,0,0,4.35.99,10.081,10.081,0,0,0,4.68-1.11,16.21,16.21,0,0,0,4.44-3.63Zm-9.9-16.2q1.2,0,1.92-.06a3.078,3.078,0,0,0,1.08-.24.917.917,0,0,0,.48-.51,2.612,2.612,0,0,0,.12-.87,5.746,5.746,0,0,0-1.77-4.41,6.806,6.806,0,0,0-4.83-1.65q-6.48,0-8.04,7.74Z" transform="translate(-58.998 -21.697)"/>
    <path d="M288.2,65.377q0,2.461.12,3.87a4.526,4.526,0,0,0,.63,2.16,2.417,2.417,0,0,0,1.5.99,17.12,17.12,0,0,0,2.73.36V74.8h-15.72v-2.04a16.9,16.9,0,0,0,2.67-.36,2.6,2.6,0,0,0,1.53-.96,4.157,4.157,0,0,0,.69-2.04,33.717,33.717,0,0,0,.15-3.6v-7.98a57.745,57.745,0,0,0-.36-8.7,5.392,5.392,0,0,0-.45-1.29,1.806,1.806,0,0,0-.81-.78,4.073,4.073,0,0,0-1.38-.36,21,21,0,0,0-2.16-.09v-1.92l9.6-2.28.72,5.94h.24a16.419,16.419,0,0,1,5.34-4.38,14.45,14.45,0,0,1,6.66-1.56,13.619,13.619,0,0,1,5.04.9,7.943,7.943,0,0,1,3.48,2.46,8.7,8.7,0,0,1,1.44,3.57,33.773,33.773,0,0,1,.42,6.03v10.02a38.63,38.63,0,0,0,.15,3.87,5.025,5.025,0,0,0,.63,2.16,2.3,2.3,0,0,0,1.47.99,16.669,16.669,0,0,0,2.61.36V74.8H299.6v-2.04a12.162,12.162,0,0,0,2.67-.33,2.6,2.6,0,0,0,1.5-.99,4.437,4.437,0,0,0,.66-2.07,33.873,33.873,0,0,0,.15-3.57v-7.92a38.732,38.732,0,0,0-.36-5.76,11.233,11.233,0,0,0-1.17-3.78,4.825,4.825,0,0,0-2.13-2.07,7.329,7.329,0,0,0-3.18-.63,9.144,9.144,0,0,0-4.95,1.41,9.669,9.669,0,0,0-3.51,3.87q-.3.6-.51,1.14a6.328,6.328,0,0,0-.33,1.26,16.226,16.226,0,0,0-.18,1.65q-.061.931-.06,2.37Z" transform="translate(-58.998 -21.697)"/>
    <path d="M345.615,69.757h-.24a13.692,13.692,0,0,1-4.59,4.35,12.057,12.057,0,0,1-5.73,1.29,15.668,15.668,0,0,1-6.27-1.23,14.685,14.685,0,0,1-4.92-3.42,15.714,15.714,0,0,1-3.24-5.25,18.5,18.5,0,0,1-1.17-6.66,18.089,18.089,0,0,1,1.17-6.57,15.79,15.79,0,0,1,3.24-5.22,14.639,14.639,0,0,1,4.95-3.42,15.727,15.727,0,0,1,6.24-1.23,12.97,12.97,0,0,1,5.13.96,13.985,13.985,0,0,1,4.35,3.06V40.3q0-3.42-.09-5.7a21.773,21.773,0,0,0-.27-3.12,2.539,2.539,0,0,0-1.68-1.86,13.456,13.456,0,0,0-4.5-.54v-1.8L350.3,25v34.62q0,4.14.06,6.81a18.349,18.349,0,0,0,.36,3.81,4.864,4.864,0,0,0,.45,1.2,1.881,1.881,0,0,0,.78.75,4.219,4.219,0,0,0,1.38.39,16.881,16.881,0,0,0,2.25.12v2.04l-9.96.66Zm-1.2-13.26a25.507,25.507,0,0,0-.33-4.74,6.535,6.535,0,0,0-1.29-2.82,8.775,8.775,0,0,0-3.51-2.73,10.513,10.513,0,0,0-4.23-.93,7.293,7.293,0,0,0-6.57,3.57q-2.25,3.571-2.25,9.69a26.732,26.732,0,0,0,.57,5.76,14.461,14.461,0,0,0,1.68,4.41,8.1,8.1,0,0,0,2.76,2.82,7.259,7.259,0,0,0,3.81.99,10.335,10.335,0,0,0,2.19-.24,9.5,9.5,0,0,0,2.16-.75,11.277,11.277,0,0,0,1.95-1.2,6.613,6.613,0,0,0,1.5-1.59,9.072,9.072,0,0,0,1.2-3.18,28.176,28.176,0,0,0,.36-5.1Z" transform="translate(-58.998 -21.697)"/>
    <path d="M388.394,69.217a15.784,15.784,0,0,1-12.66,6.18,16.915,16.915,0,0,1-6.42-1.17,14.328,14.328,0,0,1-4.95-3.3,14.844,14.844,0,0,1-3.21-5.1,18.191,18.191,0,0,1-1.14-6.57,18.715,18.715,0,0,1,1.2-6.78,15.328,15.328,0,0,1,3.39-5.34,15.731,15.731,0,0,1,5.22-3.48,17.1,17.1,0,0,1,6.63-1.26q5.819,0,9,3.15t3.18,9.03c0,.561-.111.9-.33,1.02a3.954,3.954,0,0,1-1.53.18h-19.74a7.536,7.536,0,0,0-.18,1.17q-.06.691-.06,1.53a20.02,20.02,0,0,0,.75,5.67,12.83,12.83,0,0,0,2.16,4.35,9.964,9.964,0,0,0,3.36,2.79,9.47,9.47,0,0,0,4.35.99,10.081,10.081,0,0,0,4.68-1.11,16.21,16.21,0,0,0,4.44-3.63Zm-9.9-16.2q1.2,0,1.92-.06a3.078,3.078,0,0,0,1.08-.24.917.917,0,0,0,.48-.51,2.612,2.612,0,0,0,.12-.87,5.746,5.746,0,0,0-1.77-4.41,6.806,6.806,0,0,0-4.83-1.65q-6.48,0-8.04,7.74Z" transform="translate(-58.998 -21.697)"/>
    <path d="M404.414,65.377q0,2.461.12,3.87a4.526,4.526,0,0,0,.63,2.16,2.417,2.417,0,0,0,1.5.99,17.12,17.12,0,0,0,2.73.36V74.8h-15.72v-2.04a16.9,16.9,0,0,0,2.67-.36,2.6,2.6,0,0,0,1.53-.96,4.157,4.157,0,0,0,.69-2.04,33.717,33.717,0,0,0,.15-3.6v-7.98a57.745,57.745,0,0,0-.36-8.7,5.392,5.392,0,0,0-.45-1.29,1.806,1.806,0,0,0-.81-.78,4.073,4.073,0,0,0-1.38-.36,21,21,0,0,0-2.16-.09v-1.92l9.6-2.28.72,5.94h.24a16.419,16.419,0,0,1,5.34-4.38,14.45,14.45,0,0,1,6.66-1.56,13.619,13.619,0,0,1,5.04.9,7.943,7.943,0,0,1,3.48,2.46,8.7,8.7,0,0,1,1.44,3.57,33.773,33.773,0,0,1,.42,6.03v10.02a38.63,38.63,0,0,0,.15,3.87,5.025,5.025,0,0,0,.63,2.16,2.3,2.3,0,0,0,1.47.99,16.669,16.669,0,0,0,2.61.36V74.8h-15.54v-2.04a12.162,12.162,0,0,0,2.67-.33,2.6,2.6,0,0,0,1.5-.99,4.437,4.437,0,0,0,.66-2.07,33.873,33.873,0,0,0,.15-3.57v-7.92a38.732,38.732,0,0,0-.36-5.76,11.233,11.233,0,0,0-1.17-3.78,4.825,4.825,0,0,0-2.13-2.07,7.329,7.329,0,0,0-3.18-.63,9.144,9.144,0,0,0-4.95,1.41,9.669,9.669,0,0,0-3.51,3.87q-.3.6-.51,1.14a6.328,6.328,0,0,0-.33,1.26,16.226,16.226,0,0,0-.18,1.65q-.061.931-.06,2.37Z" transform="translate(-58.998 -21.697)"/>
    <path d="M435.194,46.777v-2.22a23.282,23.282,0,0,0,4.98-3.72,12.628,12.628,0,0,0,2.76-4.44h1.74v7.56h8.04v2.82h-8.04v18.24a25,25,0,0,0,.21,3.54,6.853,6.853,0,0,0,.69,2.31,2.759,2.759,0,0,0,1.26,1.23,4.728,4.728,0,0,0,1.98.36,4.868,4.868,0,0,0,2.55-.63,7.038,7.038,0,0,0,2.07-2.13l1.5,1.14a6.376,6.376,0,0,1-2.91,3.39,10.3,10.3,0,0,1-5.13,1.17,8.65,8.65,0,0,1-6.03-1.89,6.98,6.98,0,0,1-2.07-5.43v-21.3Z" transform="translate(-58.998 -21.697)"/>
    <path d="M501.073,28a25.822,25.822,0,0,1,9.84,1.86,24.755,24.755,0,0,1,7.92,5.1,23.694,23.694,0,0,1,5.28,7.62,23.359,23.359,0,0,1,1.92,9.48,21.658,21.658,0,0,1-1.95,9.12,23.4,23.4,0,0,1-5.31,7.41,25.144,25.144,0,0,1-7.92,4.98,27.048,27.048,0,0,1-19.56,0,25.116,25.116,0,0,1-7.92-4.98,23.373,23.373,0,0,1-5.31-7.41,21.644,21.644,0,0,1-1.95-9.12,23.351,23.351,0,0,1,1.92-9.48,23.665,23.665,0,0,1,5.28-7.62,24.728,24.728,0,0,1,7.92-5.1A25.814,25.814,0,0,1,501.073,28Zm0,44.1a17.533,17.533,0,0,0,7.11-1.38,15.129,15.129,0,0,0,5.4-3.96,17.761,17.761,0,0,0,3.45-6.27,26.6,26.6,0,0,0,1.2-8.25,29.221,29.221,0,0,0-1.2-8.67,19.494,19.494,0,0,0-3.42-6.6,14.984,14.984,0,0,0-5.4-4.2,18.072,18.072,0,0,0-14.28,0,14.965,14.965,0,0,0-5.4,4.2,19.476,19.476,0,0,0-3.42,6.6,29.19,29.19,0,0,0-1.2,8.67,26.567,26.567,0,0,0,1.2,8.25,18.022,18.022,0,0,0,3.42,6.27,14.773,14.773,0,0,0,5.4,3.96A17.744,17.744,0,0,0,501.073,72.1Z" transform="translate(-58.998 -21.697)"/>
    <path d="M557.232,52.6q0-2.459-.12-3.87a4.555,4.555,0,0,0-.63-2.16,2.551,2.551,0,0,0-1.5-1.02,17.863,17.863,0,0,0-2.73-.45V43h10.86v18.42q0,3.42.09,5.58a28.667,28.667,0,0,0,.27,3.24,3.407,3.407,0,0,0,.39,1.23,1.9,1.9,0,0,0,.81.72,4.136,4.136,0,0,0,1.41.36q.869.09,2.25.09v2.1l-9.9.72-.66-7.2h-.24a15.246,15.246,0,0,1-5.25,5.43,12.275,12.275,0,0,1-6.21,1.71,12.925,12.925,0,0,1-4.89-.96,8.06,8.06,0,0,1-3.57-2.58,8.59,8.59,0,0,1-1.47-3.66,33.187,33.187,0,0,1-.45-6.06V52.6q0-2.459-.12-3.87a4.555,4.555,0,0,0-.63-2.16,2.553,2.553,0,0,0-1.5-1.02,17.871,17.871,0,0,0-2.73-.45V43h10.86v16.38q0,6.541,1.53,9.48a5.133,5.133,0,0,0,4.89,2.94q5.279,0,8.22-6.9a13.8,13.8,0,0,0,.48-1.32,10.889,10.889,0,0,0,.3-1.32q.119-.72.18-1.62t.06-2.16Z" transform="translate(-58.998 -21.697)"/>
    <path d="M572.052,46.777v-2.22a23.282,23.282,0,0,0,4.98-3.72,12.628,12.628,0,0,0,2.76-4.44h1.74v7.56h8.04v2.82h-8.04v18.24a25,25,0,0,0,.21,3.54,6.853,6.853,0,0,0,.69,2.31,2.759,2.759,0,0,0,1.26,1.23,4.728,4.728,0,0,0,1.98.36,4.868,4.868,0,0,0,2.55-.63,7.038,7.038,0,0,0,2.07-2.13l1.5,1.14a6.376,6.376,0,0,1-2.91,3.39,10.3,10.3,0,0,1-5.13,1.17,8.65,8.65,0,0,1-6.03-1.89,6.98,6.98,0,0,1-2.07-5.43v-21.3Z" transform="translate(-58.998 -21.697)"/>
    <path d="M605.652,65.257q0,2.461.12,3.9a4.586,4.586,0,0,0,.63,2.19,2.4,2.4,0,0,0,1.47.99,16.335,16.335,0,0,0,2.7.36v2.1h-15.96V72.7a12.914,12.914,0,0,0,2.76-.33,2.752,2.752,0,0,0,1.56-.99,4.213,4.213,0,0,0,.69-2.07,34.75,34.75,0,0,0,.15-3.63v-7.02q0-4.08-.09-6.36a9.18,9.18,0,0,0-.6-3.36,2.156,2.156,0,0,0-1.59-1.29,16.623,16.623,0,0,0-3-.21v-2.1l10.5-2.28.84,7.44h.24a15.081,15.081,0,0,1,1.95-3.3,13.986,13.986,0,0,1,2.55-2.55,12.275,12.275,0,0,1,2.88-1.65,8.177,8.177,0,0,1,3.06-.6,4.576,4.576,0,0,1,3.03.93,3.085,3.085,0,0,1,1.11,2.49,2.872,2.872,0,0,1-.9,2.25,3.73,3.73,0,0,1-2.58.81,4.75,4.75,0,0,1-1.62-.24,9.14,9.14,0,0,1-1.17-.51q-.51-.27-.96-.51a2.079,2.079,0,0,0-.99-.24q-1.62,0-3.24,2.07a15.105,15.105,0,0,0-2.52,5.25,27.508,27.508,0,0,0-.75,3.93,37.6,37.6,0,0,0-.27,4.59Z" transform="translate(-58.998 -21.697)"/>
    <path d="M651.612,69.217a15.784,15.784,0,0,1-12.66,6.18,16.915,16.915,0,0,1-6.42-1.17,14.328,14.328,0,0,1-4.95-3.3,14.844,14.844,0,0,1-3.21-5.1,18.191,18.191,0,0,1-1.14-6.57,18.715,18.715,0,0,1,1.2-6.78,15.328,15.328,0,0,1,3.39-5.34,15.731,15.731,0,0,1,5.22-3.48,17.1,17.1,0,0,1,6.63-1.26q5.819,0,9,3.15t3.18,9.03c0,.561-.111.9-.33,1.02a3.954,3.954,0,0,1-1.53.18h-19.74a7.536,7.536,0,0,0-.18,1.17q-.06.691-.06,1.53a20.02,20.02,0,0,0,.75,5.67,12.83,12.83,0,0,0,2.16,4.35,9.964,9.964,0,0,0,3.36,2.79,9.47,9.47,0,0,0,4.35.99,10.081,10.081,0,0,0,4.68-1.11,16.21,16.21,0,0,0,4.44-3.63Zm-9.9-16.2q1.2,0,1.92-.06a3.078,3.078,0,0,0,1.08-.24.917.917,0,0,0,.48-.51,2.612,2.612,0,0,0,.12-.87,5.746,5.746,0,0,0-1.77-4.41,6.806,6.806,0,0,0-4.83-1.65q-6.48,0-8.04,7.74Z" transform="translate(-58.998 -21.697)"/>
    <path d="M675.612,54.457V52q0-7.32-6.24-7.32a7.263,7.263,0,0,0-1.74.18,2.846,2.846,0,0,0-1.2.6,3.881,3.881,0,0,0-.87,1.2,13.3,13.3,0,0,0-.75,1.92,6.254,6.254,0,0,1-1.29,2.31,3.053,3.053,0,0,1-4.83-2.43q0-2.88,3.061-4.47t8.7-1.59q6,0,8.52,2.13t2.521,7.23V65.2q0,6.84,2.7,6.84a6.173,6.173,0,0,0,1.62-.21,2.254,2.254,0,0,0,1.32-1.11l.84,1.44a5.546,5.546,0,0,1-2.64,2.31,9.121,9.121,0,0,1-4.021.93,4.641,4.641,0,0,1-3.93-1.68,7.631,7.631,0,0,1-1.29-4.74h-.3a11.96,11.96,0,0,1-4.32,4.65,11.388,11.388,0,0,1-6.12,1.71,8.622,8.622,0,0,1-5.939-1.92,6.557,6.557,0,0,1-2.16-5.16,7.594,7.594,0,0,1,.51-2.76,7.711,7.711,0,0,1,1.65-2.52,15.489,15.489,0,0,1,3-2.37,36.47,36.47,0,0,1,4.56-2.37Zm0,2.58a53.558,53.558,0,0,0-5.79,2.58,20.248,20.248,0,0,0-3.811,2.52,8.545,8.545,0,0,0-2.07,2.52,5.712,5.712,0,0,0-.63,2.58,4.283,4.283,0,0,0,1.32,3.24,4.831,4.831,0,0,0,3.48,1.26,5.717,5.717,0,0,0,2.909-.78,7.947,7.947,0,0,0,2.37-2.13,10.823,10.823,0,0,0,1.62-3.18,12.358,12.358,0,0,0,.6-3.87Z" transform="translate(-58.998 -21.697)"/>
    <path d="M718.271,69.817a14.415,14.415,0,0,1-5.58,4.11,18.49,18.49,0,0,1-7.38,1.47,14.416,14.416,0,0,1-5.851-1.17,13.268,13.268,0,0,1-4.59-3.3,14.889,14.889,0,0,1-2.97-5.13,20.047,20.047,0,0,1-1.05-6.66,19.02,19.02,0,0,1,1.2-6.93,15.076,15.076,0,0,1,3.391-5.28,14.726,14.726,0,0,1,5.279-3.36,19.1,19.1,0,0,1,6.811-1.17,21.475,21.475,0,0,1,4.26.39,13.913,13.913,0,0,1,3.33,1.08,6.2,6.2,0,0,1,2.19,1.68,3.386,3.386,0,0,1,.779,2.13,2.306,2.306,0,0,1-.779,1.86,3.241,3.241,0,0,1-2.16.66,3.336,3.336,0,0,1-1.8-.45,8.12,8.12,0,0,1-1.86-2.01,8.163,8.163,0,0,0-2.311-1.95,6.228,6.228,0,0,0-2.85-.57,7.245,7.245,0,0,0-6.45,3.3q-2.19,3.3-2.189,9.72,0,6.9,2.43,10.47a8.056,8.056,0,0,0,7.11,3.57,11.507,11.507,0,0,0,4.739-.99,15.863,15.863,0,0,0,4.5-3.21Z" transform="translate(-58.998 -21.697)"/>
    <path d="M732.552,65.257q0,2.461.119,3.9a4.585,4.585,0,0,0,.631,2.19,2.4,2.4,0,0,0,1.47.99,16.335,16.335,0,0,0,2.7.36v2.1h-15.96V72.7a17.956,17.956,0,0,0,2.76-.36,2.613,2.613,0,0,0,1.56-.96,4.208,4.208,0,0,0,.69-2.07,34.637,34.637,0,0,0,.149-3.63V40.537q0-3.54-.09-5.64a19.564,19.564,0,0,0-.33-3.18,3.352,3.352,0,0,0-.39-1.17,1.911,1.911,0,0,0-.81-.72,4.673,4.673,0,0,0-1.44-.39,17.287,17.287,0,0,0-2.22-.12v-2.04L732.432,25v22.86h.239a10.69,10.69,0,0,1,2.25-2.19,16.839,16.839,0,0,1,2.91-1.71,18.078,18.078,0,0,1,3.271-1.14,13.971,13.971,0,0,1,3.33-.42,13.091,13.091,0,0,1,5.069.96,8.557,8.557,0,0,1,3.57,2.58,9.341,9.341,0,0,1,1.5,3.63,30.552,30.552,0,0,1,.48,6.09v9.6q0,2.461.119,3.87a4.731,4.731,0,0,0,.631,2.19,2.363,2.363,0,0,0,1.47,1.02,16.335,16.335,0,0,0,2.7.36v2.1h-15.9V72.7a12.63,12.63,0,0,0,2.7-.33,2.614,2.614,0,0,0,1.53-.99,4.438,4.438,0,0,0,.659-2.07,34.592,34.592,0,0,0,.15-3.63v-7.56q0-6.719-1.56-9.57a5.477,5.477,0,0,0-5.221-2.85,9.5,9.5,0,0,0-5.13,1.44,10.06,10.06,0,0,0-3.63,3.96q-.3.661-.51,1.23a7.023,7.023,0,0,0-.33,1.29,12.342,12.342,0,0,0-.15,1.65q-.031.931-.029,2.31Z" transform="translate(-58.998 -21.697)"/>
    <path d="M792.671,69.217a15.785,15.785,0,0,1-12.66,6.18,16.916,16.916,0,0,1-6.42-1.17,14.332,14.332,0,0,1-4.95-3.3,14.851,14.851,0,0,1-3.21-5.1,18.181,18.181,0,0,1-1.14-6.57,18.735,18.735,0,0,1,1.2-6.78,15.33,15.33,0,0,1,3.391-5.34,15.719,15.719,0,0,1,5.22-3.48,17.1,17.1,0,0,1,6.63-1.26q5.82,0,9,3.15t3.18,9.03q0,.842-.329,1.02a3.957,3.957,0,0,1-1.53.18h-19.74a7.426,7.426,0,0,0-.18,1.17q-.062.691-.061,1.53a20.055,20.055,0,0,0,.75,5.67,12.84,12.84,0,0,0,2.16,4.35,9.964,9.964,0,0,0,3.36,2.79,9.467,9.467,0,0,0,4.35.99,10.079,10.079,0,0,0,4.68-1.11,16.2,16.2,0,0,0,4.44-3.63Zm-9.9-16.2q1.2,0,1.92-.06a3.078,3.078,0,0,0,1.08-.24.92.92,0,0,0,.48-.51,2.627,2.627,0,0,0,.119-.87,5.744,5.744,0,0,0-1.77-4.41,6.806,6.806,0,0,0-4.83-1.65q-6.48,0-8.04,7.74Z" transform="translate(-58.998 -21.697)"/>
    <path d="M809.051,65.257q0,2.461.12,3.9a4.575,4.575,0,0,0,.63,2.19,2.4,2.4,0,0,0,1.47.99,16.335,16.335,0,0,0,2.7.36v2.1h-15.96V72.7a12.913,12.913,0,0,0,2.76-.33,2.75,2.75,0,0,0,1.56-.99,4.208,4.208,0,0,0,.69-2.07,34.592,34.592,0,0,0,.15-3.63v-7.02q0-4.08-.091-6.36a9.161,9.161,0,0,0-.6-3.36,2.155,2.155,0,0,0-1.59-1.29,16.619,16.619,0,0,0-3-.21v-2.1l10.5-2.28.84,7.44h.24a15.082,15.082,0,0,1,1.95-3.3,13.953,13.953,0,0,1,2.55-2.55,12.294,12.294,0,0,1,2.88-1.65,8.178,8.178,0,0,1,3.06-.6,4.575,4.575,0,0,1,3.03.93,3.087,3.087,0,0,1,1.11,2.49,2.874,2.874,0,0,1-.9,2.25,3.73,3.73,0,0,1-2.58.81,4.755,4.755,0,0,1-1.62-.24,9.193,9.193,0,0,1-1.17-.51q-.51-.27-.96-.51a2.079,2.079,0,0,0-.99-.24q-1.62,0-3.239,2.07a15.115,15.115,0,0,0-2.521,5.25,27.44,27.44,0,0,0-.75,3.93,37.6,37.6,0,0,0-.27,4.59Z" transform="translate(-58.998 -21.697)"/>
    <path d="M887.65,65.737l9.36-26.04q.839-2.34,1.2-3.72a9.689,9.689,0,0,0,.36-2.4,2.244,2.244,0,0,0-.99-2.13,7.633,7.633,0,0,0-3.51-.57V28.6h14.58v2.28a6.518,6.518,0,0,0-4.17,1.14,8.478,8.478,0,0,0-2.37,3.72L887.051,75.4h-2.1l-11.52-34.14L860.65,75.4h-2.1l-12.48-34.44q-1.08-2.88-1.95-4.83a12.508,12.508,0,0,0-1.859-3.09,5.633,5.633,0,0,0-2.25-1.62,8.631,8.631,0,0,0-3.061-.48V28.6h19.561v2.34a11.824,11.824,0,0,0-4.29.54,2.071,2.071,0,0,0-1.23,2.1,7.968,7.968,0,0,0,.24,1.8,24.253,24.253,0,0,0,.72,2.4l9.12,27.78,7.38-20.76q.839-2.34,1.65-4.35t1.29-3.63q-.841-1.74-1.53-2.88a8.865,8.865,0,0,0-1.38-1.8,4.119,4.119,0,0,0-1.44-.93,4.655,4.655,0,0,0-1.59-.27V28.6h18.36v2.34a26.7,26.7,0,0,0-2.82.12,5.421,5.421,0,0,0-1.649.39,1.5,1.5,0,0,0-.78.75,2.822,2.822,0,0,0-.21,1.14,9.054,9.054,0,0,0,.33,2.19q.328,1.291.93,3.27Z" transform="translate(-58.998 -21.697)"/>
    <path d="M922.931,42.4a17.334,17.334,0,0,1,11.85,4.62,16.006,16.006,0,0,1,3.66,5.13,15.542,15.542,0,0,1,1.351,6.51,16.393,16.393,0,0,1-5.011,12,17.018,17.018,0,0,1-5.369,3.48,17.252,17.252,0,0,1-12.87.03,16.085,16.085,0,0,1-8.91-8.76,16.986,16.986,0,0,1-1.32-6.75,16.05,16.05,0,0,1,1.32-6.54,15.745,15.745,0,0,1,3.6-5.16,16.443,16.443,0,0,1,5.311-3.36A17.2,17.2,0,0,1,922.931,42.4Zm0,2.88a8.591,8.591,0,0,0-4.05.96,9.02,9.02,0,0,0-3.12,2.73,13.1,13.1,0,0,0-1.98,4.26,20.528,20.528,0,0,0-.689,5.49,21.357,21.357,0,0,0,.689,5.64,13.063,13.063,0,0,0,1.98,4.29,9.1,9.1,0,0,0,3.09,2.73,8.532,8.532,0,0,0,4.08.96,8.89,8.89,0,0,0,4.14-.96,9.1,9.1,0,0,0,3.181-2.76,13.537,13.537,0,0,0,2.04-4.32,20.3,20.3,0,0,0,.72-5.58,19.424,19.424,0,0,0-.72-5.46,13.249,13.249,0,0,0-2.04-4.23,9.539,9.539,0,0,0-3.181-2.76A8.671,8.671,0,0,0,922.931,45.277Z" transform="translate(-58.998 -21.697)"/>
    <path d="M955.99,65.257q0,2.461.12,3.9a4.575,4.575,0,0,0,.63,2.19,2.4,2.4,0,0,0,1.47.99,16.335,16.335,0,0,0,2.7.36v2.1H944.95V72.7a12.913,12.913,0,0,0,2.76-.33,2.75,2.75,0,0,0,1.56-.99,4.208,4.208,0,0,0,.69-2.07,34.592,34.592,0,0,0,.15-3.63v-7.02q0-4.08-.091-6.36a9.161,9.161,0,0,0-.6-3.36,2.155,2.155,0,0,0-1.59-1.29,16.619,16.619,0,0,0-3-.21v-2.1l10.5-2.28.84,7.44h.24a15.082,15.082,0,0,1,1.95-3.3,13.953,13.953,0,0,1,2.55-2.55A12.294,12.294,0,0,1,963.79,43a8.178,8.178,0,0,1,3.06-.6,4.575,4.575,0,0,1,3.03.93,3.087,3.087,0,0,1,1.11,2.49,2.874,2.874,0,0,1-.9,2.25,3.73,3.73,0,0,1-2.58.81,4.755,4.755,0,0,1-1.62-.24,9.193,9.193,0,0,1-1.17-.51q-.51-.27-.96-.51a2.079,2.079,0,0,0-.99-.24q-1.62,0-3.239,2.07a15.115,15.115,0,0,0-2.521,5.25,27.44,27.44,0,0,0-.75,3.93,37.6,37.6,0,0,0-.27,4.59Z" transform="translate(-58.998 -21.697)"/>
    <path d="M992.169,72.7a13.739,13.739,0,0,0,2.73-.18c.5-.12.75-.28.75-.48a5.171,5.171,0,0,0-.96-1.74q-.9-1.26-2.341-3l-6.359-7.68-2.22,2.1v3.54a26.488,26.488,0,0,0,.21,3.75,5.159,5.159,0,0,0,.779,2.22,2.885,2.885,0,0,0,1.681,1.11,13.084,13.084,0,0,0,2.909.36v2.1h-17.04V72.7a13.094,13.094,0,0,0,2.91-.36,3.246,3.246,0,0,0,1.74-1.08,4.6,4.6,0,0,0,.87-2.1,20.3,20.3,0,0,0,.24-3.48V40.537q0-4.559-.09-6.9a6.943,6.943,0,0,0-.631-3.18,2.326,2.326,0,0,0-1.8-.99,29.964,29.964,0,0,0-3.359-.15v-2.04L983.77,25v32.94l5.579-5.46q2.7-2.7,4.021-3.99t1.32-1.95q0-.66-1.261-1.05a12.815,12.815,0,0,0-3.6-.39V43h15.6v2.1a14.256,14.256,0,0,0-1.979.12,5.434,5.434,0,0,0-1.59.48,9.612,9.612,0,0,0-1.59.99q-.842.63-1.921,1.59l-8.64,7.68,11.88,13.44a16.086,16.086,0,0,0,1.53,1.65,6.575,6.575,0,0,0,1.38.99,5.3,5.3,0,0,0,1.5.51,10.876,10.876,0,0,0,1.95.15v2.1h-15.78Z" transform="translate(-58.998 -21.697)"/>
    <path d="M1037.35,69.217a15.785,15.785,0,0,1-12.66,6.18,16.916,16.916,0,0,1-6.42-1.17,14.332,14.332,0,0,1-4.95-3.3,14.851,14.851,0,0,1-3.21-5.1,18.181,18.181,0,0,1-1.14-6.57,18.735,18.735,0,0,1,1.2-6.78,15.33,15.33,0,0,1,3.391-5.34,15.719,15.719,0,0,1,5.22-3.48,17.1,17.1,0,0,1,6.63-1.26q5.82,0,9,3.15t3.18,9.03q0,.842-.329,1.02a3.957,3.957,0,0,1-1.53.18h-19.74a7.426,7.426,0,0,0-.18,1.17q-.062.691-.061,1.53a20.055,20.055,0,0,0,.75,5.67,12.84,12.84,0,0,0,2.16,4.35,9.964,9.964,0,0,0,3.36,2.79,9.467,9.467,0,0,0,4.35.99,10.079,10.079,0,0,0,4.68-1.11,16.2,16.2,0,0,0,4.44-3.63Zm-9.9-16.2q1.2,0,1.92-.06a3.078,3.078,0,0,0,1.08-.24.92.92,0,0,0,.48-.51,2.627,2.627,0,0,0,.119-.87,5.744,5.744,0,0,0-1.77-4.41,6.806,6.806,0,0,0-4.83-1.65q-6.48,0-8.04,7.74Z" transform="translate(-58.998 -21.697)"/>
    <path d="M1053.729,65.257q0,2.461.12,3.9a4.575,4.575,0,0,0,.63,2.19,2.4,2.4,0,0,0,1.47.99,16.334,16.334,0,0,0,2.7.36v2.1h-15.96V72.7a12.913,12.913,0,0,0,2.76-.33,2.75,2.75,0,0,0,1.56-.99,4.208,4.208,0,0,0,.69-2.07,34.592,34.592,0,0,0,.15-3.63v-7.02q0-4.08-.091-6.36a9.161,9.161,0,0,0-.6-3.36,2.155,2.155,0,0,0-1.59-1.29,16.619,16.619,0,0,0-3-.21v-2.1l10.5-2.28.84,7.44h.24a15.082,15.082,0,0,1,1.95-3.3,13.953,13.953,0,0,1,2.55-2.55,12.294,12.294,0,0,1,2.88-1.65,8.178,8.178,0,0,1,3.06-.6,4.575,4.575,0,0,1,3.03.93,3.087,3.087,0,0,1,1.11,2.49,2.874,2.874,0,0,1-.9,2.25,3.73,3.73,0,0,1-2.58.81,4.755,4.755,0,0,1-1.62-.24,9.193,9.193,0,0,1-1.17-.51q-.51-.27-.96-.51a2.079,2.079,0,0,0-.99-.24q-1.62,0-3.239,2.07a15.115,15.115,0,0,0-2.521,5.25,27.44,27.44,0,0,0-.75,3.93,37.6,37.6,0,0,0-.27,4.59Z" transform="translate(-58.998 -21.697)"/>
    <path d="M1070.769,71.5a3.83,3.83,0,0,1,1.141-2.82,3.759,3.759,0,0,1,2.76-1.14,3.893,3.893,0,0,1,3.96,3.96,3.763,3.763,0,0,1-1.14,2.76,3.837,3.837,0,0,1-2.82,1.14,3.894,3.894,0,0,1-3.9-3.9Z" transform="translate(-58.998 -21.697)"/>
  </g>
</svg>
