<svg id="Layer_1" data-name="Layer 1" xmlns="http://www.w3.org/2000/svg" viewBox="0 0 514.116 507.512">
  <title>Logo Web</title>
  <g>
    <path d="M27.263,266.4l.142-3.477-.879-.036c-2.517-.1-3.589,1.654-3.676,3.772a3.886,3.886,0,0,0,2.524,3.865l-.954,3.764c-3.362-.978-5.4-3.942-5.244-7.818.19-4.675,2.365-7.948,8.279-7.707l12.507.51-.144,3.516-2.653.292a7.281,7.281,0,0,1,2.7,6.355c-.137,3.355-2.171,6.114-6.366,5.943C29.346,275.214,27.053,271.558,27.263,266.4Zm8.958,2.167a5.005,5.005,0,0,0-4.9-5.484l-.44-.018-.147,3.637c-.1,2.558,1.029,4.2,2.947,4.282A2.27,2.27,0,0,0,36.221,268.57Z" transform="translate(1.516 -6.121)"/>
    <path d="M12.281,247.715a2.876,2.876,0,0,1,3.217-2.544,2.879,2.879,0,0,1-.629,5.724A2.875,2.875,0,0,1,12.281,247.715Zm32.706,9.95c-.507-2.711-1.645-4.447-4.864-4.8L20.6,250.721l.455-4.136,19.123,2.1c5.447.6,7.986,3.493,8.539,8.342Z" transform="translate(1.516 -6.121)"/>
    <path d="M21.812,240.153l.568-3.311L16.9,235.9l-1.86-4.54,8.042,1.38.886-5.165,3.627.621-.885,5.166,9.7,1.662c2.247.385,3.375-.274,3.685-2.087a3.227,3.227,0,0,0-.228-1.988l3.652-.469a7.217,7.217,0,0,1,.162,3.313c-.643,3.746-3.323,6.127-8.211,5.289l-9.462-1.622-.567,3.313Z" transform="translate(1.516 -6.121)"/>
    <path d="M34.892,197.177l1.454,3.2a4.382,4.382,0,0,0-2.783,2.833A1.907,1.907,0,0,0,34.9,205.7c1.377.418,2.432-.851,3.8-2.608,1.784-2.3,3.78-4.745,7.224-3.7,3.33,1.01,5.345,4.422,4.091,8.554a8.465,8.465,0,0,1-7.431,5.9l-.814-3.925c1.954-.243,4.121-1.049,4.771-3.191a2.423,2.423,0,0,0-1.736-3.369c-1.684-.512-2.852,1.685-4.493,3.651-1.592,1.941-3.589,3.426-6.536,2.531a5.865,5.865,0,0,1-3.672-7.592A7.028,7.028,0,0,1,34.892,197.177Z" transform="translate(1.516 -6.121)"/>
    <path d="M58.027,184.858l-3.189-1.289a7.5,7.5,0,0,1,1.046,7.454c-1.317,3.263-4.181,4.7-7.816,3.229l-13.39-5.4,1.557-3.857L48.4,189.9c2.523,1.02,3.877.228,4.581-1.516.972-2.411-.925-5.937-6.081-8.019l-7.566-3.054,1.556-3.857L59.584,181Z" transform="translate(1.516 -6.121)"/>
    <path d="M67.146,166.5a6.678,6.678,0,0,1-4.776,3.592l9.208,4.832-1.934,3.684L44.571,165.45l1.933-3.683,2.054,1.078a6.717,6.717,0,0,1,.209-6.078c2.769-5.277,7.688-6.13,13.39-3.137C67.682,156.531,69.952,161.154,67.146,166.5Zm-15.382-7.529c-1.394,2.656-.13,5.758,3.553,7.69s6.954,1.211,8.347-1.444.131-5.759-3.552-7.693S53.159,156.316,51.764,158.973Z" transform="translate(1.516 -6.121)"/>
    <path d="M79.712,145.511a6.682,6.682,0,0,1-5.122,3.078l8.657,5.759-2.3,3.463L57.369,142.126l2.3-3.462,1.932,1.285a6.718,6.718,0,0,1,.837-6.023c3.3-4.961,8.281-5.3,13.642-1.732C81.277,135.648,83.057,140.482,79.712,145.511Zm-14.517-9.082c-1.662,2.5-.727,5.712,2.736,8.016s6.79,1.924,8.451-.573.727-5.713-2.736-8.017S66.856,133.931,65.195,136.429Z" transform="translate(1.516 -6.121)"/>
    <path d="M77.772,113.36c3.974-4.81,9.956-4.641,14.334-1.025s5.674,9.459,1.7,14.269-9.955,4.642-14.333,1.026S73.8,118.17,77.772,113.36Zm13.2,10.9c2.318-2.807.956-6.37-1.666-8.534s-6.377-2.83-8.7-.023-.955,6.369,1.666,8.533S88.652,127.067,90.97,124.261Z" transform="translate(1.516 -6.121)"/>
    <path d="M103.7,114.824l-14.39-14.113,2.912-2.97,2.4,2.352a7.13,7.13,0,0,1,1.545-6.831A6.933,6.933,0,0,1,98.3,91.772l2.208,3.175a4.59,4.59,0,0,0-2.081,1.264c-1.876,1.913-1.7,5.956,2.844,10.408l5.339,5.236Z" transform="translate(1.516 -6.121)"/>
    <path d="M102.7,87.472l2.538-2.2-3.645-4.2,1.438-4.688,5.348,6.162,3.956-3.434,2.412,2.778-3.956,3.434,6.448,7.43c1.494,1.722,2.784,1.926,4.173.72a3.223,3.223,0,0,0,1.083-1.681l3.122,1.95a7.208,7.208,0,0,1-1.974,2.667c-2.87,2.49-6.452,2.633-9.7-1.111l-6.292-7.248-2.537,2.2Z" transform="translate(1.516 -6.121)"/>
    <path d="M140.021,62.507l-.9,3.4a4.38,4.38,0,0,0-3.947.432,1.908,1.908,0,0,0-.547,2.774c.8,1.2,2.421.881,4.593.386,2.837-.652,5.93-1.281,7.935,1.708,1.938,2.889,1.34,6.805-2.246,9.211a8.46,8.46,0,0,1-9.483-.139l1.853-3.553c1.666,1.048,3.854,1.8,5.713.549a2.422,2.422,0,0,0,.788-3.706c-.98-1.461-3.273-.5-5.79-.017-2.46.5-4.944.381-6.66-2.176a5.863,5.863,0,0,1,1.961-8.2A7.034,7.034,0,0,1,140.021,62.507Z" transform="translate(1.516 -6.121)"/>
    <path d="M166.413,57.057l-12.521,6.865c1.422,2.595,4.181,4.048,7.057,2.471a5.807,5.807,0,0,0,3-5.519l3.794-.483c.107,4.274-.987,7.018-5.021,9.229-5.821,3.192-10.935-.392-13.241-4.6s-2.58-10.446,3.242-13.638c5.646-3.1,10.656.133,12.829,4.1ZM152.29,60.832l8.592-4.711a4.829,4.829,0,0,0-6.394-1.513A4.882,4.882,0,0,0,152.29,60.832Z" transform="translate(1.516 -6.121)"/>
    <path d="M175.545,62.686,167.357,44.27l3.8-1.689,1.364,3.07a7.125,7.125,0,0,1,3.949-5.782,6.943,6.943,0,0,1,2.534-.6l.885,3.763a4.586,4.586,0,0,0-2.4.411c-2.447,1.089-3.767,4.913-1.184,10.722L179.346,61Z" transform="translate(1.516 -6.121)"/>
    <path d="M187.5,35.886l8.91,12.232L195.812,33l4-1.393.31,21.236-3.7,1.286L183.5,37.278Z" transform="translate(1.516 -6.121)"/>
    <path d="M205.077,21.254a2.877,2.877,0,0,1,3.554,2.046,2.88,2.88,0,0,1-5.551,1.536A2.877,2.877,0,0,1,205.077,21.254Zm4.3,7.734,5.376,19.429-4.01,1.109L205.365,30.1Z" transform="translate(1.516 -6.121)"/>
    <path d="M236.926,38.139c-.846,3.884-3.248,6.33-7.442,7.179-6.272,1.27-10.259-2.9-11.354-8.312s.956-10.8,7.228-12.073c4.194-.849,7.359.47,9.649,3.719l-3.328,2.307a5.252,5.252,0,0,0-5.591-2.418c-3.488.706-4.4,3.87-3.646,7.593s2.823,6.285,6.312,5.578a5.248,5.248,0,0,0,4.21-4.4Z" transform="translate(1.516 -6.121)"/>
    <path d="M259.9,31.835,245.7,33.3c.3,2.943,2.283,5.352,5.545,5.014a5.807,5.807,0,0,0,4.9-3.924l3.685,1.025c-1.559,3.981-3.632,6.085-8.206,6.559-6.6.684-9.924-4.6-10.419-9.374s1.674-10.626,8.276-11.311c6.4-.663,9.768,4.256,10.233,8.75Zm-14.479-2,9.746-1.009a4.829,4.829,0,0,0-5.306-3.873A4.882,4.882,0,0,0,245.425,29.836Z" transform="translate(1.516 -6.121)"/>
    <path d="M278.647,23.087l-2.615,2.347a4.379,4.379,0,0,0-3.539-1.8,1.907,1.907,0,0,0-1.979,2.021c.015,1.439,1.541,2.063,3.63,2.842,2.729,1.011,5.662,2.18,5.7,5.78.036,3.479-2.613,6.427-6.934,6.472a8.467,8.467,0,0,1-7.855-5.319l3.5-1.956c.818,1.791,2.237,3.617,4.478,3.594a2.423,2.423,0,0,0,2.692-2.668c-.019-1.76-2.464-2.216-4.833-3.19-2.33-.936-4.346-2.395-4.378-5.475a5.865,5.865,0,0,1,6.14-5.783A7.031,7.031,0,0,1,278.647,23.087Z" transform="translate(1.516 -6.121)"/>
  </g>
</svg>
